# xmcd CD database file
#
# Track frame offsets:
#	150
#	17229
#	65823
#	72127
#	122147
#	155616
#	184404
#	273116
#
# Disc length: 4219 seconds
#
# Revision: 0
# Processed by: cddbd v1.4PL0 Copyright (c) Steve Scherf et al.
# Submitted via: NeoAudio 9.9.9
#
DISCID=74107908
DTITLE=Gov't Mule - Live at Stubb's Bar-B-Q Austin,TX 10-25-01 CD2
DYEAR=2001
DGENRE=Blues
TTITLE0=Bad Little Doggie
TTITLE1=Lay Your Burdens Down
TTITLE2=Drums
TTITLE3=Pygmy Twylyte > Blind Man In The Dark
TTITLE4=Down and Out In New York City
TTITLE5=Wild Horses
TTITLE6=Mule > What is Hip > ScatMule > Mule
TTITLE7=Soulshine
EXTD=YEAR: 2001
EXTT0=
EXTT1=
EXTT2=
EXTT3=
EXTT4=
EXTT5=
EXTT6=
EXTT7=
PLAYORDER=
